<svg width="90" height="90" viewBox="0 0 90 90" fill="none" xmlns="http://www.w3.org/2000/svg">
  <path d="M45 75V35" stroke="#17D4EE" stroke-width="3" stroke-linecap="round"/>
  <path d="M45 50C45 50 30 45 30 30C30 30 30 25 35 25C40 25 45 30 45 35" stroke="#17D4EE" stroke-width="3" stroke-linecap="round" stroke-linejoin="round"/>
  <path d="M45 40C45 40 60 35 60 20C60 20 60 15 55 15C50 15 45 20 45 25" stroke="#17D4EE" stroke-width="3" stroke-linecap="round" stroke-linejoin="round"/>
  <circle cx="30" cy="75" r="2" fill="#17D4EE" opacity="0.5"/>
  <circle cx="45" cy="75" r="2" fill="#17D4EE" opacity="0.5"/>
  <circle cx="60" cy="75" r="2" fill="#17D4EE" opacity="0.5"/>
  <circle cx="37" cy="78" r="1.5" fill="#17D4EE" opacity="0.3"/>
  <circle cx="53" cy="78" r="1.5" fill="#17D4EE" opacity="0.3"/>
</svg>